<mxfile host="app.diagrams.net" modified="2024-02-22T14:38:21.247Z" agent="Mozilla/5.0 (Windows NT 10.0; Win64; x64) AppleWebKit/537.36 (KHTML, like Gecko) Chrome/121.0.0.0 Safari/537.36" etag="Pcgjd_DCfRy4wwpz2Khb" version="23.1.5" type="github">
  <diagram name="Страница — 1" id="g3XDoeVtDIhqBWvHhiLf">
    <mxGraphModel dx="1562" dy="4153" grid="1" gridSize="10" guides="1" tooltips="1" connect="1" arrows="1" fold="1" page="1" pageScale="1" pageWidth="2339" pageHeight="3300" math="0" shadow="0">
      <root>
        <mxCell id="0" />
        <mxCell id="1" parent="0" />
        <mxCell id="-0UsEFb4lN7PsdeG_HUj-1" value="&lt;font style=&quot;font-size: 14px;&quot;&gt;Удаленный сервер,&lt;br&gt;&amp;nbsp;МЭК мастер&lt;/font&gt;" style="shape=cylinder3;whiteSpace=wrap;html=1;boundedLbl=1;backgroundOutline=1;size=15;" vertex="1" parent="1">
          <mxGeometry x="344" y="181" width="200" height="140" as="geometry" />
        </mxCell>
        <mxCell id="-0UsEFb4lN7PsdeG_HUj-4" value="PLC хаб №1, адрес Modbus:1" style="swimlane;fontStyle=0;childLayout=stackLayout;horizontal=1;startSize=30;horizontalStack=0;resizeParent=1;resizeParentMax=0;resizeLast=0;collapsible=1;marginBottom=0;whiteSpace=wrap;html=1;" vertex="1" parent="1">
          <mxGeometry x="290" y="507" width="290" height="350" as="geometry" />
        </mxCell>
        <mxCell id="-0UsEFb4lN7PsdeG_HUj-6" value="0~50: данные хаба, включая серийный номер" style="text;strokeColor=none;fillColor=none;align=left;verticalAlign=middle;spacingLeft=4;spacingRight=4;overflow=hidden;points=[[0,0.5],[1,0.5]];portConstraint=eastwest;rotatable=0;whiteSpace=wrap;html=1;" vertex="1" parent="-0UsEFb4lN7PsdeG_HUj-4">
          <mxGeometry y="30" width="290" height="40" as="geometry" />
        </mxCell>
        <mxCell id="-0UsEFb4lN7PsdeG_HUj-8" value="100~2148: серийные номера подключенных PLC устройств, если устройство неподключено, то значение устанавливается в ноль. Устройств: до 1024. По адресу регистра Modbus, где лежит серийник - можно узнать статический адрес PLC устройства." style="text;strokeColor=none;fillColor=none;align=left;verticalAlign=middle;spacingLeft=4;spacingRight=4;overflow=hidden;points=[[0,0.5],[1,0.5]];portConstraint=eastwest;rotatable=0;whiteSpace=wrap;html=1;" vertex="1" parent="-0UsEFb4lN7PsdeG_HUj-4">
          <mxGeometry y="70" width="290" height="100" as="geometry" />
        </mxCell>
        <mxCell id="-0UsEFb4lN7PsdeG_HUj-7" value="3000~33720: данные устройств PLC, например по 30 регистров на каждое. Аналогично записи выше - данные устройства начинаются с адреса Modbus, который можно вычислить из статического адреса PLC устройства." style="text;strokeColor=none;fillColor=none;align=left;verticalAlign=middle;spacingLeft=4;spacingRight=4;overflow=hidden;points=[[0,0.5],[1,0.5]];portConstraint=eastwest;rotatable=0;whiteSpace=wrap;html=1;" vertex="1" parent="-0UsEFb4lN7PsdeG_HUj-4">
          <mxGeometry y="170" width="290" height="90" as="geometry" />
        </mxCell>
        <mxCell id="-0UsEFb4lN7PsdeG_HUj-9" value="Фактически, данное адресное пространство позволит удаленному серверу соотнести серийный номер устройств PLC с их статическим адресом в рамках данного устройства, а так же производить различные маниуляции с данными." style="text;strokeColor=none;fillColor=none;align=left;verticalAlign=middle;spacingLeft=4;spacingRight=4;overflow=hidden;points=[[0,0.5],[1,0.5]];portConstraint=eastwest;rotatable=0;whiteSpace=wrap;html=1;" vertex="1" parent="-0UsEFb4lN7PsdeG_HUj-4">
          <mxGeometry y="260" width="290" height="90" as="geometry" />
        </mxCell>
        <mxCell id="-0UsEFb4lN7PsdeG_HUj-11" value="Шлюз, адрес устройства: 33 (максимальное количество PLC хабов + 1)" style="swimlane;fontStyle=0;childLayout=stackLayout;horizontal=1;startSize=30;horizontalStack=0;resizeParent=1;resizeParentMax=0;resizeLast=0;collapsible=1;marginBottom=0;whiteSpace=wrap;html=1;" vertex="1" parent="1">
          <mxGeometry x="740" y="170" width="420" height="150" as="geometry" />
        </mxCell>
        <mxCell id="-0UsEFb4lN7PsdeG_HUj-12" value="0~50: данные шлюза, включая серийный номер" style="text;strokeColor=none;fillColor=none;align=left;verticalAlign=middle;spacingLeft=4;spacingRight=4;overflow=hidden;points=[[0,0.5],[1,0.5]];portConstraint=eastwest;rotatable=0;whiteSpace=wrap;html=1;" vertex="1" parent="-0UsEFb4lN7PsdeG_HUj-11">
          <mxGeometry y="30" width="420" height="30" as="geometry" />
        </mxCell>
        <mxCell id="-0UsEFb4lN7PsdeG_HUj-13" value="100~164: серийные номера подключенных PLC хабов, если устройство не подключено, значение регистра устанавливается в ноль. Устройств: до 32. По адресу регистра Modbus, где лежит серийник - можно узнать Modbus адрес PLC хаба.&lt;div&gt;&lt;br&gt;&lt;/div&gt;" style="text;strokeColor=none;fillColor=none;align=left;verticalAlign=middle;spacingLeft=4;spacingRight=4;overflow=hidden;points=[[0,0.5],[1,0.5]];portConstraint=eastwest;rotatable=0;whiteSpace=wrap;html=1;" vertex="1" parent="-0UsEFb4lN7PsdeG_HUj-11">
          <mxGeometry y="60" width="420" height="90" as="geometry" />
        </mxCell>
        <mxCell id="-0UsEFb4lN7PsdeG_HUj-15" value="PLC хаб №32, адрес Modbus:32" style="swimlane;fontStyle=0;childLayout=stackLayout;horizontal=1;startSize=30;horizontalStack=0;resizeParent=1;resizeParentMax=0;resizeLast=0;collapsible=1;marginBottom=0;whiteSpace=wrap;html=1;" vertex="1" parent="1">
          <mxGeometry x="930" y="507" width="290" height="350" as="geometry" />
        </mxCell>
        <mxCell id="-0UsEFb4lN7PsdeG_HUj-16" value="0~50: данные хаба, включая серийный номер" style="text;strokeColor=none;fillColor=none;align=left;verticalAlign=middle;spacingLeft=4;spacingRight=4;overflow=hidden;points=[[0,0.5],[1,0.5]];portConstraint=eastwest;rotatable=0;whiteSpace=wrap;html=1;" vertex="1" parent="-0UsEFb4lN7PsdeG_HUj-15">
          <mxGeometry y="30" width="290" height="40" as="geometry" />
        </mxCell>
        <mxCell id="-0UsEFb4lN7PsdeG_HUj-17" value="100~2148: серийные номера подключенных PLC устройств, если устройство неподключено, то значение устанавливается в ноль. Устройств: до 1024. По адресу регистра Modbus, где лежит серийник - можно узнать статический адрес PLC устройства." style="text;strokeColor=none;fillColor=none;align=left;verticalAlign=middle;spacingLeft=4;spacingRight=4;overflow=hidden;points=[[0,0.5],[1,0.5]];portConstraint=eastwest;rotatable=0;whiteSpace=wrap;html=1;" vertex="1" parent="-0UsEFb4lN7PsdeG_HUj-15">
          <mxGeometry y="70" width="290" height="100" as="geometry" />
        </mxCell>
        <mxCell id="-0UsEFb4lN7PsdeG_HUj-18" value="3000~33720: данные устройств PLC, например по 30 регистров на каждое. Аналогично записи выше - данные устройства начинаются с адреса Modbus, который можно вычислить из статического адреса PLC устройства." style="text;strokeColor=none;fillColor=none;align=left;verticalAlign=middle;spacingLeft=4;spacingRight=4;overflow=hidden;points=[[0,0.5],[1,0.5]];portConstraint=eastwest;rotatable=0;whiteSpace=wrap;html=1;" vertex="1" parent="-0UsEFb4lN7PsdeG_HUj-15">
          <mxGeometry y="170" width="290" height="90" as="geometry" />
        </mxCell>
        <mxCell id="-0UsEFb4lN7PsdeG_HUj-19" value="Фактически, данное адресное пространство позволит удаленному серверу соотнести серийный номер устройств PLC с их статическим адресом в рамках данного устройства, а так же производить различные маниуляции с данными." style="text;strokeColor=none;fillColor=none;align=left;verticalAlign=middle;spacingLeft=4;spacingRight=4;overflow=hidden;points=[[0,0.5],[1,0.5]];portConstraint=eastwest;rotatable=0;whiteSpace=wrap;html=1;" vertex="1" parent="-0UsEFb4lN7PsdeG_HUj-15">
          <mxGeometry y="260" width="290" height="90" as="geometry" />
        </mxCell>
        <mxCell id="-0UsEFb4lN7PsdeG_HUj-20" value="" style="ellipse;whiteSpace=wrap;html=1;" vertex="1" parent="1">
          <mxGeometry x="640" y="667" width="40" height="40" as="geometry" />
        </mxCell>
        <mxCell id="-0UsEFb4lN7PsdeG_HUj-21" value="" style="ellipse;whiteSpace=wrap;html=1;" vertex="1" parent="1">
          <mxGeometry x="740" y="667" width="40" height="40" as="geometry" />
        </mxCell>
        <mxCell id="-0UsEFb4lN7PsdeG_HUj-23" value="" style="ellipse;whiteSpace=wrap;html=1;" vertex="1" parent="1">
          <mxGeometry x="830" y="667" width="40" height="40" as="geometry" />
        </mxCell>
        <mxCell id="-0UsEFb4lN7PsdeG_HUj-26" value="" style="endArrow=classic;startArrow=classic;html=1;rounded=0;entryX=1;entryY=0.5;entryDx=0;entryDy=0;exitX=0.5;exitY=0;exitDx=0;exitDy=0;" edge="1" parent="1" source="-0UsEFb4lN7PsdeG_HUj-15" target="-0UsEFb4lN7PsdeG_HUj-13">
          <mxGeometry width="50" height="50" relative="1" as="geometry">
            <mxPoint x="760" y="420" as="sourcePoint" />
            <mxPoint x="810" y="370" as="targetPoint" />
            <Array as="points">
              <mxPoint x="1075" y="400" />
              <mxPoint x="1230" y="400" />
              <mxPoint x="1370" y="400" />
              <mxPoint x="1370" y="275" />
              <mxPoint x="1230" y="275" />
            </Array>
          </mxGeometry>
        </mxCell>
        <mxCell id="-0UsEFb4lN7PsdeG_HUj-27" value="" style="endArrow=classic;startArrow=classic;html=1;rounded=0;exitX=0.5;exitY=0;exitDx=0;exitDy=0;" edge="1" parent="1" source="-0UsEFb4lN7PsdeG_HUj-4">
          <mxGeometry width="50" height="50" relative="1" as="geometry">
            <mxPoint x="760" y="420" as="sourcePoint" />
            <mxPoint x="1080" y="400" as="targetPoint" />
            <Array as="points">
              <mxPoint x="435" y="400" />
            </Array>
          </mxGeometry>
        </mxCell>
        <mxCell id="-0UsEFb4lN7PsdeG_HUj-28" value="&lt;font style=&quot;font-size: 14px;&quot;&gt;Modbus, стандартное адресное пространство: 0~65535&lt;/font&gt;" style="text;html=1;align=center;verticalAlign=middle;whiteSpace=wrap;rounded=0;" vertex="1" parent="1">
          <mxGeometry x="1240" y="210" width="60" height="30" as="geometry" />
        </mxCell>
        <mxCell id="-0UsEFb4lN7PsdeG_HUj-31" value="" style="shape=flexArrow;endArrow=classic;startArrow=classic;html=1;rounded=0;entryX=-0.007;entryY=0.238;entryDx=0;entryDy=0;entryPerimeter=0;exitX=1;exitY=0.5;exitDx=0;exitDy=0;exitPerimeter=0;" edge="1" parent="1" source="-0UsEFb4lN7PsdeG_HUj-1" target="-0UsEFb4lN7PsdeG_HUj-13">
          <mxGeometry width="100" height="100" relative="1" as="geometry">
            <mxPoint x="590" y="290" as="sourcePoint" />
            <mxPoint x="690" y="190" as="targetPoint" />
          </mxGeometry>
        </mxCell>
        <mxCell id="-0UsEFb4lN7PsdeG_HUj-32" value="&lt;h1&gt;Формат запроса МЭК&lt;/h1&gt;&lt;p&gt;[общий адрес: 0~65535]:[объект информации, адрес: 0~65535]:[команда МЭК]:[значения (опционально)]&lt;/p&gt;&lt;p&gt;- где в качестве общего адреса предлагается использовать адреса шлюза и PLC хабов, то есть в диапазоне: 1~33,&amp;nbsp;&lt;span style=&quot;background-color: initial;&quot;&gt;а в качестве объекта информации - адресное пространство Modbus&lt;/span&gt;&lt;/p&gt;&lt;p&gt;Данный вид запроса позволит получить серийники и статические адреса всех устройств системы, составить таблицу соотвествия и обращаться уже к устройствам нижнего уровня, зная их статический адрес и серийный номер. Механизм обсуждается.&lt;/p&gt;" style="text;html=1;spacing=5;spacingTop=-20;whiteSpace=wrap;overflow=hidden;rounded=0;" vertex="1" parent="1">
          <mxGeometry x="390" y="-9" width="680" height="160" as="geometry" />
        </mxCell>
        <mxCell id="-0UsEFb4lN7PsdeG_HUj-33" value="" style="curved=1;endArrow=classic;html=1;rounded=0;exitX=0.25;exitY=1;exitDx=0;exitDy=0;" edge="1" parent="1" source="-0UsEFb4lN7PsdeG_HUj-32">
          <mxGeometry width="50" height="50" relative="1" as="geometry">
            <mxPoint x="760" y="300" as="sourcePoint" />
            <mxPoint x="640" y="250" as="targetPoint" />
            <Array as="points">
              <mxPoint x="640" y="170" />
              <mxPoint x="570" y="210" />
              <mxPoint x="640" y="190" />
              <mxPoint x="590" y="220" />
            </Array>
          </mxGeometry>
        </mxCell>
        <mxCell id="-0UsEFb4lN7PsdeG_HUj-34" value="PLC устройство №1, динамический адрес известен только PLC хабу" style="swimlane;fontStyle=0;childLayout=stackLayout;horizontal=1;startSize=30;horizontalStack=0;resizeParent=1;resizeParentMax=0;resizeLast=0;collapsible=1;marginBottom=0;whiteSpace=wrap;html=1;" vertex="1" parent="1">
          <mxGeometry x="315" y="949" width="230" height="110" as="geometry" />
        </mxCell>
        <mxCell id="-0UsEFb4lN7PsdeG_HUj-35" value="0: статически адрес устройства, от 1 до 1024" style="text;strokeColor=none;fillColor=none;align=left;verticalAlign=middle;spacingLeft=4;spacingRight=4;overflow=hidden;points=[[0,0.5],[1,0.5]];portConstraint=eastwest;rotatable=0;whiteSpace=wrap;html=1;" vertex="1" parent="-0UsEFb4lN7PsdeG_HUj-34">
          <mxGeometry y="30" width="230" height="40" as="geometry" />
        </mxCell>
        <mxCell id="-0UsEFb4lN7PsdeG_HUj-36" value="2: серийный номер устройства" style="text;strokeColor=none;fillColor=none;align=left;verticalAlign=middle;spacingLeft=4;spacingRight=4;overflow=hidden;points=[[0,0.5],[1,0.5]];portConstraint=eastwest;rotatable=0;whiteSpace=wrap;html=1;" vertex="1" parent="-0UsEFb4lN7PsdeG_HUj-34">
          <mxGeometry y="70" width="230" height="40" as="geometry" />
        </mxCell>
        <mxCell id="-0UsEFb4lN7PsdeG_HUj-38" value="PLC устройство №1024, динамический адрес известен только PLC хабу" style="swimlane;fontStyle=0;childLayout=stackLayout;horizontal=1;startSize=30;horizontalStack=0;resizeParent=1;resizeParentMax=0;resizeLast=0;collapsible=1;marginBottom=0;whiteSpace=wrap;html=1;" vertex="1" parent="1">
          <mxGeometry x="648" y="951" width="230" height="110" as="geometry" />
        </mxCell>
        <mxCell id="-0UsEFb4lN7PsdeG_HUj-39" value="0: статически адрес устройства, от 1 до 1024" style="text;strokeColor=none;fillColor=none;align=left;verticalAlign=middle;spacingLeft=4;spacingRight=4;overflow=hidden;points=[[0,0.5],[1,0.5]];portConstraint=eastwest;rotatable=0;whiteSpace=wrap;html=1;" vertex="1" parent="-0UsEFb4lN7PsdeG_HUj-38">
          <mxGeometry y="30" width="230" height="40" as="geometry" />
        </mxCell>
        <mxCell id="-0UsEFb4lN7PsdeG_HUj-40" value="2: серийный номер устройства" style="text;strokeColor=none;fillColor=none;align=left;verticalAlign=middle;spacingLeft=4;spacingRight=4;overflow=hidden;points=[[0,0.5],[1,0.5]];portConstraint=eastwest;rotatable=0;whiteSpace=wrap;html=1;" vertex="1" parent="-0UsEFb4lN7PsdeG_HUj-38">
          <mxGeometry y="70" width="230" height="40" as="geometry" />
        </mxCell>
        <mxCell id="-0UsEFb4lN7PsdeG_HUj-41" value="" style="ellipse;whiteSpace=wrap;html=1;" vertex="1" parent="1">
          <mxGeometry x="559" y="995" width="20" height="20" as="geometry" />
        </mxCell>
        <mxCell id="-0UsEFb4lN7PsdeG_HUj-42" value="" style="ellipse;whiteSpace=wrap;html=1;" vertex="1" parent="1">
          <mxGeometry x="589" y="995" width="20" height="20" as="geometry" />
        </mxCell>
        <mxCell id="-0UsEFb4lN7PsdeG_HUj-43" value="" style="ellipse;whiteSpace=wrap;html=1;" vertex="1" parent="1">
          <mxGeometry x="620" y="995" width="20" height="20" as="geometry" />
        </mxCell>
        <mxCell id="-0UsEFb4lN7PsdeG_HUj-45" value="" style="endArrow=classic;startArrow=classic;html=1;rounded=0;entryX=0.483;entryY=1.033;entryDx=0;entryDy=0;entryPerimeter=0;exitX=0.5;exitY=0;exitDx=0;exitDy=0;" edge="1" parent="1" source="-0UsEFb4lN7PsdeG_HUj-38" target="-0UsEFb4lN7PsdeG_HUj-9">
          <mxGeometry width="50" height="50" relative="1" as="geometry">
            <mxPoint x="380" y="920" as="sourcePoint" />
            <mxPoint x="430" y="870" as="targetPoint" />
            <Array as="points">
              <mxPoint x="763" y="920" />
              <mxPoint x="430" y="920" />
            </Array>
          </mxGeometry>
        </mxCell>
        <mxCell id="-0UsEFb4lN7PsdeG_HUj-46" value="" style="endArrow=classic;startArrow=classic;html=1;rounded=0;exitX=0.5;exitY=0;exitDx=0;exitDy=0;" edge="1" parent="1" source="-0UsEFb4lN7PsdeG_HUj-34">
          <mxGeometry width="50" height="50" relative="1" as="geometry">
            <mxPoint x="760" y="900" as="sourcePoint" />
            <mxPoint x="430" y="920" as="targetPoint" />
          </mxGeometry>
        </mxCell>
        <mxCell id="-0UsEFb4lN7PsdeG_HUj-47" value="&lt;span style=&quot;font-size: 14px;&quot;&gt;Проприетарный протокол&lt;/span&gt;" style="text;html=1;align=center;verticalAlign=middle;resizable=0;points=[];autosize=1;strokeColor=none;fillColor=none;" vertex="1" parent="1">
          <mxGeometry x="445" y="888" width="190" height="30" as="geometry" />
        </mxCell>
      </root>
    </mxGraphModel>
  </diagram>
</mxfile>
